<svg xmlns="http://www.w3.org/2000/svg" xmlns:xlink="http://www.w3.org/1999/xlink" version="1.1" width="256" height="256" viewBox="0 0 256 256" xml:space="preserve">

<defs>
</defs>
<g style="stroke: none; stroke-width: 0; stroke-dasharray: none; stroke-linecap: butt; stroke-linejoin: miter; stroke-miterlimit: 10; fill: none; fill-rule: nonzero; opacity: 1;" transform="translate(1.4065934065934016 1.4065934065934016) scale(2.81 2.81)" >
	<path d="M 86.226 49.831 l -0.003 -0.001 c -2.994 -1.24 -3.226 -4.01 -3.226 -4.829 c -0.001 -0.82 0.232 -3.59 3.226 -4.83 c 1.509 -0.625 2.683 -1.8 3.308 -3.308 c 0.625 -1.508 0.625 -3.169 0 -4.678 l -3.981 -9.611 c -1.291 -3.111 -4.869 -4.598 -7.987 -3.306 c -2.996 1.242 -5.118 -0.554 -5.696 -1.133 c -0.58 -0.58 -2.374 -2.703 -1.133 -5.698 c 0.624 -1.508 0.624 -3.169 -0.001 -4.677 c -0.625 -1.509 -1.8 -2.684 -3.307 -3.308 l -9.611 -3.981 c -3.111 -1.288 -6.694 0.196 -7.986 3.309 C 48.589 6.771 45.82 7.004 45 7.004 c -0.82 0 -3.59 -0.232 -4.83 -3.226 c -0.624 -1.509 -1.799 -2.684 -3.308 -3.309 c -1.508 -0.625 -3.169 -0.625 -4.679 0 l -9.608 3.98 c -1.509 0.625 -2.684 1.799 -3.309 3.308 c -0.625 1.509 -0.625 3.17 0 4.678 c 1.241 2.994 -0.554 5.118 -1.133 5.697 c -0.579 0.58 -2.7 2.376 -5.696 1.134 c -1.508 -0.624 -3.17 -0.624 -4.679 0 c -1.509 0.625 -2.684 1.8 -3.308 3.308 l -3.98 9.609 c -0.625 1.509 -0.625 3.17 0 4.679 c 0.625 1.509 1.8 2.684 3.308 3.308 C 6.771 41.41 7.004 44.181 7.004 45 c 0 0.819 -0.233 3.589 -3.229 4.83 c -3.113 1.291 -4.596 4.874 -3.306 7.985 l 3.98 9.61 c 0.625 1.509 1.8 2.683 3.308 3.308 c 1.507 0.624 3.168 0.625 4.678 0 c 2.993 -1.238 5.117 0.554 5.697 1.134 c 0.579 0.579 2.373 2.703 1.133 5.697 c -1.29 3.112 0.193 6.695 3.308 7.987 l 9.61 3.981 C 32.938 89.844 33.73 90 34.523 90 s 1.585 -0.156 2.339 -0.469 c 1.509 -0.625 2.684 -1.8 3.308 -3.307 c 1.241 -2.995 4.011 -3.227 4.83 -3.227 c 0 0 0 0 0 0 c 0.819 0 3.589 0.232 4.83 3.229 c 1.291 3.111 4.874 4.591 7.985 3.305 l 9.613 -3.981 c 3.111 -1.291 4.594 -4.873 3.305 -7.986 c -1.24 -2.994 0.554 -5.118 1.134 -5.697 c 0.58 -0.58 2.699 -2.376 5.698 -1.133 c 3.114 1.285 6.694 -0.196 7.986 -3.309 l 3.981 -9.61 C 90.82 54.703 89.337 51.121 86.226 49.831 z M 45 60.388 c -8.485 0 -15.388 -6.903 -15.388 -15.388 c 0 -8.485 6.903 -15.388 15.388 -15.388 S 60.388 36.515 60.388 45 C 60.388 53.485 53.485 60.388 45 60.388 z" style="stroke: none; stroke-width: 1; stroke-dasharray: none; stroke-linecap: butt; stroke-linejoin: miter; stroke-miterlimit: 10; fill: rgb(118,104,242); fill-rule: nonzero; opacity: 1;" transform=" matrix(1 0 0 1 0 0) " stroke-linecap="round" />
</g>
</svg>