<svg xmlns="http://www.w3.org/2000/svg" xmlns:xlink="http://www.w3.org/1999/xlink" version="1.1" width="256" height="256" viewBox="0 0 256 256" xml:space="preserve">

<defs>
</defs>
<g style="stroke: none; stroke-width: 0; stroke-dasharray: none; stroke-linecap: butt; stroke-linejoin: miter; stroke-miterlimit: 10; fill: none; fill-rule: nonzero; opacity: 1;" transform="translate(1.4065934065934016 1.4065934065934016) scale(2.81 2.81)" >
	<path d="M 34.523 90 c -0.792 0 -1.584 -0.156 -2.338 -0.468 l -9.61 -3.981 c -3.115 -1.292 -4.598 -4.875 -3.308 -7.987 c 1.24 -2.994 -0.554 -5.118 -1.133 -5.697 c -0.58 -0.58 -2.704 -2.372 -5.697 -1.134 c -1.51 0.625 -3.171 0.624 -4.678 0 c -1.509 -0.625 -2.684 -1.8 -3.308 -3.308 l -3.98 -9.61 c -1.289 -3.111 0.194 -6.694 3.306 -7.985 C 6.771 48.589 7.004 45.82 7.004 45 c 0 -0.82 -0.232 -3.59 -3.227 -4.831 c -1.508 -0.624 -2.683 -1.799 -3.308 -3.308 c -0.625 -1.509 -0.624 -3.17 0 -4.679 l 3.98 -9.609 c 0.624 -1.508 1.799 -2.683 3.308 -3.308 c 1.509 -0.624 3.171 -0.624 4.679 0 c 2.996 1.242 5.117 -0.554 5.696 -1.134 c 0.58 -0.579 2.374 -2.702 1.133 -5.697 c -0.624 -1.508 -0.625 -3.17 0 -4.678 c 0.625 -1.509 1.8 -2.684 3.309 -3.308 l 9.608 -3.98 c 1.51 -0.624 3.171 -0.625 4.679 0 c 1.509 0.625 2.683 1.8 3.308 3.309 c 1.24 2.993 4.01 3.226 4.83 3.226 c 0.819 0 3.589 -0.233 4.829 -3.226 c 1.292 -3.114 4.875 -4.597 7.986 -3.309 l 9.611 3.981 c 1.508 0.624 2.682 1.799 3.307 3.308 c 0.625 1.508 0.625 3.169 0.001 4.677 c -1.241 2.995 0.553 5.119 1.133 5.698 c 0.578 0.58 2.7 2.375 5.696 1.133 c 3.118 -1.292 6.696 0.195 7.987 3.306 l 3.981 9.611 c 0.625 1.509 0.625 3.17 0 4.678 c -0.625 1.509 -1.8 2.684 -3.308 3.308 c -2.994 1.24 -3.227 4.01 -3.226 4.83 c 0 0.819 0.232 3.589 3.226 4.829 l 0.003 0.001 c 3.111 1.29 4.594 4.873 3.306 7.985 l -3.981 9.61 c -1.292 3.113 -4.872 4.594 -7.986 3.309 c -2.999 -1.243 -5.118 0.553 -5.698 1.133 c -0.58 0.579 -2.374 2.703 -1.134 5.697 c 1.289 3.113 -0.194 6.695 -3.305 7.986 l -9.613 3.981 c -3.111 1.286 -6.694 -0.194 -7.985 -3.305 c -1.241 -2.997 -4.011 -3.229 -4.83 -3.229 c 0 0 0 0 0 0 c -0.819 0 -3.59 0.232 -4.83 3.227 c -0.624 1.508 -1.799 2.682 -3.308 3.307 C 36.107 89.844 35.315 90 34.523 90 z M 27.261 78.834 l 6.358 2.634 c 2.358 -4.034 6.57 -6.47 11.381 -6.47 c 0 0 0 0 0.001 0 c 4.81 0 9.022 2.436 11.379 6.47 l 6.359 -2.634 c -1.185 -4.519 0.069 -9.221 3.471 -12.623 c 3.402 -3.402 8.106 -4.656 12.623 -3.471 l 2.634 -6.359 c -4.034 -2.357 -6.47 -6.569 -6.47 -11.379 c -0.001 -4.812 2.436 -9.024 6.47 -11.382 l -2.634 -6.358 c -4.518 1.184 -9.221 -0.069 -12.623 -3.471 c -3.402 -3.402 -4.657 -8.103 -3.471 -12.623 l -6.358 -2.634 c -2.356 4.033 -6.569 6.471 -11.38 6.471 c -4.812 0 -9.024 -2.436 -11.382 -6.471 l -6.358 2.634 c 1.185 4.52 -0.07 9.222 -3.471 12.623 c -3.402 3.401 -8.103 4.659 -12.623 3.471 l -2.634 6.358 c 4.035 2.358 6.471 6.57 6.471 11.382 c 0 4.81 -2.437 9.022 -6.471 11.379 l 2.634 6.359 c 4.52 -1.188 9.221 0.069 12.623 3.471 C 27.191 69.613 28.447 74.314 27.261 78.834 z M 83.159 57.219 C 83.16 57.219 83.16 57.219 83.159 57.219 C 83.16 57.219 83.16 57.219 83.159 57.219 z" style="stroke: none; stroke-width: 1; stroke-dasharray: none; stroke-linecap: butt; stroke-linejoin: miter; stroke-miterlimit: 10; fill: rgb(100,94,221); fill-rule: nonzero; opacity: 1;" transform=" matrix(1 0 0 1 0 0) " stroke-linecap="round" />
	<path d="M 45 60.388 c -8.485 0 -15.388 -6.903 -15.388 -15.388 c 0 -8.485 6.903 -15.388 15.388 -15.388 S 60.388 36.515 60.388 45 C 60.388 53.485 53.485 60.388 45 60.388 z M 45 37.612 c -4.074 0 -7.388 3.315 -7.388 7.389 s 3.314 7.388 7.388 7.388 s 7.388 -3.314 7.388 -7.388 S 49.074 37.612 45 37.612 z" style="stroke: none; stroke-width: 1; stroke-dasharray: none; stroke-linecap: butt; stroke-linejoin: miter; stroke-miterlimit: 10; fill: rgb(100,94,221); fill-rule: nonzero; opacity: 1;" transform=" matrix(1 0 0 1 0 0) " stroke-linecap="round" />
</g>
</svg>